<svg id="Layer_1" data-name="Layer 1" xmlns="http://www.w3.org/2000/svg" viewBox="0 0 1691 762"><defs><style>.cls-1{fill:#fff;}.cls-2{font-size:200px;}.cls-2,.cls-5{font-family:AvenirNext-Regular, Avenir Next;}.cls-3{letter-spacing:-0.01em;}.cls-4{fill:none;stroke:#000;stroke-miterlimit:10;stroke-width:10px;}.cls-5{font-size:100px;}</style></defs><rect class="cls-1" x="477" y="2" width="1212" height="758"/><path d="M1730,161V915H522V161H1730m4-4H518V919H1734V157Z" transform="translate(-43 -157)"/><text class="cls-2" transform="translate(780.66 300.98)"><tspan class="cls-3">S</tspan><tspan x="110.4" y="0">ystem</tspan></text><rect class="cls-1" x="257" y="241" width="375" height="276"/><line class="cls-4" x1="151" y1="146" x2="257" y2="241"/><line class="cls-4" x1="257" y1="241" x2="543" y2="241"/><line class="cls-4" x1="626" y1="156" x2="543" y2="241"/><line class="cls-4" x1="224" y1="211" x2="219.5" y2="206.5"/><line class="cls-4" x1="551" y1="517" x2="257" y2="517"/><line class="cls-4" x1="257" y1="517" x2="157" y2="626"/><line class="cls-4" x1="551" y1="517" x2="608" y2="600"/><line class="cls-4" y1="379" x2="171" y2="379"/><line class="cls-4" x1="124" y1="327" x2="171" y2="379"/><line class="cls-4" x1="129" y1="423" x2="171" y2="379"/><line class="cls-4" x1="528" y1="379" x2="699" y2="379"/><line class="cls-4" x1="652" y1="327" x2="699" y2="379"/><line class="cls-4" x1="657" y1="423" x2="699" y2="379"/><text class="cls-5" transform="translate(243.66 400.98)">Input</text></svg>